<svg xmlns="http://www.w3.org/2000/svg" viewBox="0 0 1024 1024"><path d="M853.333333 256H170.666667V853.333333a85.333333 85.333333 0 0 0 85.333333 85.333334h512A85.333333 85.333333 0 0 0 853.333333 853.333333V256zM85.333333 170.666667h170.666667V85.333333A85.333333 85.333333 0 0 1 341.333333 0h341.333334a85.333333 85.333333 0 0 1 85.333333 85.333333V170.666667h213.333333a42.666667 42.666667 0 0 1 0 85.333333H938.666667V853.333333a170.666667 170.666667 0 0 1-170.666667 170.666667h-512a170.666667 170.666667 0 0 1-170.666667-170.666667V256H42.666667a42.666667 42.666667 0 1 1 0-85.333333H85.333333zM341.333333 170.666667h341.333334V85.333333H341.333333V170.666667z m42.666667 256c23.552 0 42.666667 19.114667 42.666667 42.666666v256a42.666667 42.666667 0 0 1-85.333334 0v-256c0-23.552 19.114667-42.666667 42.666667-42.666666z m256 0c23.552 0 42.666667 19.114667 42.666667 42.666666v256a42.666667 42.666667 0 0 1-85.333334 0v-256c0-23.552 19.114667-42.666667 42.666667-42.666666z"></path></svg>