<svg viewBox="0 0 1024 1024" xmlns="http://www.w3.org/2000/svg"><path d="M825.6 788.224a82.176 82.176 0 0 0 81.92-82.432c0-30.208-25.6-82.432-78.848-159.744l-3.072-4.608-3.072 4.608c-52.992 76.8-78.848 129.536-78.848 159.744a82.176 82.176 0 0 0 81.92 82.432zM1005.312 921.6H20.224a19.712 19.712 0 0 0-19.456 19.712v62.976a19.712 19.712 0 0 0 19.456 19.712h985.088a19.456 19.456 0 0 0 19.456-19.456v-62.72a19.712 19.712 0 0 0-19.456-20.224zM346.88 807.424a35.328 35.328 0 0 0 25.6 10.496 34.816 34.816 0 0 0 25.6-10.496L711.68 490.24a34.816 34.816 0 0 0 0-49.664L386.048 112.384 281.6 5.888a19.968 19.968 0 0 0-27.648 0L208.384 51.2a19.456 19.456 0 0 0-5.632 13.824 20.224 20.224 0 0 0 5.632 13.824l91.904 92.16L31.744 440.32a35.584 35.584 0 0 0 0 49.92z m232.192-349.952a30.208 30.208 0 0 1 1.792 5.12H162.816a15.104 15.104 0 0 1 4.352-8.448l193.536-194.816h1.28a16.384 16.384 0 0 1 20.992 0l193.024 194.304z"></path></svg>